PathFileType	4	(X/Y/Z) S1_Point1_Trial1.trc
DataRate	CameraRate	NumFrames	NumMarkers	Units	OrigDataRate	OrigDataStartFrame	OrigNumFrames
1000.00	1000.00	8	43	m	1000.00	4680	5348
Frame#	Time	L.FootHeel			L.AnkleLateral			L.AnkleMedial			L.ToeLateral			L.ToeMedial			L.WristMedial			L.WristLateral			L.ShoulderFront			L.ShoulderRear			L.KneeLateral			L.KneeMedial			L.LowerArmLateral			L.LowerArmMedial			R.FootHeel			R.AnkleLateral			R.AnkleMedial			R.ToeLateral			R.ToeMedial			R.WristMedial			R.WristLateral			R.ShoulderFront			R.ShoulderRear			R.KneeLateral			R.KneeMedial			R.LowerArmLateral			R.LowerArmMedial			LASIS			LPSIS			RASIS			RPSIS			C7			CLAV			LACR			RACR			Head_Top			R.UpparArm			L.UpparArm			R.Thigh			L.Thigh			R.Shank			L.Shank			RFAsuperior			LFAsuperior			
		X1	Y1	Z1	X2	Y2	Z2	X3	Y3	Z3	X4	Y4	Z4	X5	Y5	Z5	X6	Y6	Z6	X7	Y7	Z7	X8	Y8	Z8	X9	Y9	Z9	X10	Y10	Z10	X11	Y11	Z11	X12	Y12	Z12	X13	Y13	Z13	X14	Y14	Z14	X15	Y15	Z15	X16	Y16	Z16	X17	Y17	Z17	X18	Y18	Z18	X19	Y19	Z19	X20	Y20	Z20	X21	Y21	Z21	X22	Y22	Z22	X23	Y23	Z23	X24	Y24	Z24	X25	Y25	Z25	X26	Y26	Z26	X27	Y27	Z27	X28	Y28	Z28	X29	Y29	Z29	X30	Y30	Z30	X31	Y31	Z31	X32	Y32	Z32	X33	Y33	Z33	X34	Y34	Z34	X35	Y35	Z35	X36	Y36	Z36	X37	Y37	Z37	X38	Y38	Z38	X39	Y39	Z39	X40	Y40	Z40	X41	Y41	Z41	X42	Y42	Z42	X43	Y43	Z43
4679	4.679	-0.316117	0.031074	-0.035306	-0.261025	0.07409	-0.068397	-0.248419	0.055437	-0.023259	-0.192952	-0.013163	-0.161152	-0.115874	0.024499	-0.122671	-0.153748	0.752662	-0.129618	-0.166826	0.762522	-0.148357	-0.236368	1.241679	-0.088852	-0.331879	1.244814	-0.062594	-0.246535	0.444184	-0.024463	-0.280373	0.440565	0.047454	-0.212764	0.975903	-0.152051	-0.247346	0.955414	-0.119363	-0.272817	0.049155	0.198494	-0.213097	0.077437	0.196475	-0.226231	0.086142	0.157757	-0.089595	0.018723	0.225687	-0.050123	0.029646	0.176274	0.088618	1.182801	0.376425	0.07504	1.175491	0.431147	-0.234312	1.315664	0.154447	-0.307826	1.264401	0.141771	-0.198015	0.541831	0.19454	-0.257441	0.568542	0.13864	-0.126749	1.131662	0.359425	-0.109063	1.094091	0.335873	-0.132329	0.876567	-0.055483	-0.281456	0.912103	0.006436	-0.107786	0.894539	0.158559	-0.253081	0.916528	0.150951	-0.283292	1.347545	0.031875	-0.22364	1.285353	0.023469	-0.25701	1.290847	-0.076531	-0.227309	1.305146	0.134032	-0.248408	1.578981	0.010676	-0.196746	1.175738	0.335047	-0.257216	1.093038	-0.175366	-0.142689	0.602066	0.220157	-0.239658	0.522656	-0.079275	-0.220653	0.300785	0.242666	-0.258752	0.246895	-0.07505	-0.060185	1.142751	0.38857	-0.204128	0.927836	-0.144783
4680	4.68	-0.316124	0.031086	-0.035314	-0.261027	0.074097	-0.068401	-0.248425	0.055445	-0.023262	-0.192954	-0.013164	-0.16115	-0.115876	0.024493	-0.122664	-0.153752	0.752698	-0.129638	-0.166826	0.762563	-0.148376	-0.236375	1.241703	-0.088728	-0.331877	1.244831	-0.062437	-0.246535	0.44419	-0.024468	-0.280374	0.440578	0.047448	-0.212743	0.975954	-0.152027	-0.247335	0.955468	-0.119348	-0.272816	0.049167	0.198483	-0.213094	0.077446	0.196471	-0.226226	0.086158	0.157754	-0.089597	0.018719	0.22568	-0.050122	0.029648	0.176271	0.088335	1.181654	0.376493	0.074701	1.17425	0.431188	-0.234235	1.315579	0.154603	-0.307755	1.264326	0.141929	-0.198027	0.541829	0.19453	-0.257457	0.568538	0.138634	-0.127094	1.130975	0.359197	-0.109445	1.093437	0.335565	-0.132336	0.876603	-0.055508	-0.281466	0.912114	0.006418	-0.107789	0.894563	0.158534	-0.253087	0.916533	0.150932	-0.283254	1.347517	0.032061	-0.223607	1.285326	0.023608	-0.25701	1.290866	-0.076378	-0.22724	1.305069	0.134181	-0.248342	1.578981	0.010754	-0.197028	1.175194	0.334895	-0.257179	1.093093	-0.175352	-0.142701	0.602064	0.220143	-0.239659	0.522657	-0.079289	-0.220659	0.300788	0.24266	-0.258751	0.246895	-0.075055	-0.060531	1.141777	0.388428	-0.204107	0.927882	-0.144776
4681	4.681	-0.316132	0.031101	-0.035322	-0.261028	0.074106	-0.068406	-0.248432	0.055454	-0.023265	-0.192955	-0.013164	-0.161146	-0.115877	0.024487	-0.122656	-0.153759	0.75273	-0.129663	-0.166829	0.762601	-0.1484	-0.236357	1.241753	-0.088622	-0.331854	1.244887	-0.062312	-0.246536	0.444197	-0.024473	-0.280376	0.440592	0.047443	-0.212721	0.97601	-0.151988	-0.247325	0.955527	-0.119319	-0.272816	0.049181	0.198472	-0.213092	0.077456	0.196468	-0.226221	0.086177	0.157752	-0.0896	0.018713	0.22567	-0.050123	0.02965	0.176265	0.088052	1.180505	0.376544	0.074368	1.17301	0.431215	-0.234156	1.31551	0.154745	-0.30769	1.264278	0.14206	-0.19804	0.541826	0.194521	-0.257473	0.568533	0.138627	-0.127406	1.130316	0.358943	-0.109781	1.092824	0.335218	-0.132351	0.876649	-0.055546	-0.281481	0.912128	0.006397	-0.107787	0.894592	0.158496	-0.25309	0.916538	0.150909	-0.283192	1.347518	0.032228	-0.22356	1.285319	0.023733	-0.256981	1.290914	-0.076244	-0.227167	1.305009	0.134316	-0.248269	1.57899	0.010827	-0.197301	1.17465	0.33474	-0.257146	1.093147	-0.175339	-0.142713	0.602062	0.220129	-0.23966	0.522658	-0.079302	-0.220664	0.300791	0.242653	-0.258753	0.246893	-0.07506	-0.060876	1.140803	0.38829	-0.204082	0.927926	-0.144764
4682	4.682	-0.31614	0.031116	-0.03533	-0.26103	0.074115	-0.068412	-0.248439	0.055464	-0.023269	-0.192957	-0.013165	-0.161142	-0.115879	0.024481	-0.122647	-0.153768	0.752758	-0.129693	-0.166835	0.762638	-0.148428	-0.236317	1.241826	-0.088533	-0.331811	1.244978	-0.062216	-0.246538	0.444203	-0.024478	-0.28038	0.440606	0.047438	-0.212698	0.976068	-0.151939	-0.247316	0.95559	-0.119281	-0.272816	0.049197	0.198461	-0.213089	0.077467	0.196466	-0.226216	0.086199	0.157752	-0.089604	0.018707	0.225659	-0.050123	0.029651	0.176258	0.087769	1.179354	0.376584	0.07404	1.171767	0.431231	-0.234079	1.315454	0.154872	-0.30763	1.264253	0.142164	-0.198053	0.541823	0.194512	-0.257488	0.568528	0.13862	-0.127693	1.129677	0.358668	-0.110082	1.092242	0.334843	-0.132371	0.876701	-0.055592	-0.2815	0.912146	0.006375	-0.107783	0.894625	0.158449	-0.25309	0.916545	0.150883	-0.283111	1.347543	0.032374	-0.223499	1.285329	0.023844	-0.256924	1.290988	-0.076129	-0.227095	1.304962	0.134438	-0.248191	1.579007	0.010897	-0.197567	1.174106	0.334582	-0.257115	1.093202	-0.175326	-0.142725	0.60206	0.220116	-0.239661	0.522659	-0.079314	-0.22067	0.300793	0.242646	-0.258755	0.246892	-0.075064	-0.06122	1.139828	0.388155	-0.204055	0.927969	-0.144747
4683	4.683	-0.316148	0.031132	-0.035338	-0.261031	0.074124	-0.068418	-0.248446	0.055475	-0.023272	-0.192957	-0.013166	-0.161137	-0.11588	0.024476	-0.122638	-0.15378	0.752784	-0.129725	-0.166843	0.762673	-0.148458	-0.236257	1.241917	-0.088461	-0.331752	1.245094	-0.062148	-0.246541	0.44421	-0.024482	-0.280383	0.44062	0.047434	-0.212676	0.976128	-0.151885	-0.247306	0.955656	-0.119237	-0.272816	0.049213	0.19845	-0.213086	0.077478	0.196465	-0.226211	0.086221	0.157752	-0.089608	0.018699	0.225647	-0.050124	0.029653	0.17625	0.087486	1.178198	0.376618	0.073713	1.170521	0.431241	-0.234005	1.31541	0.154985	-0.307577	1.264247	0.142244	-0.198065	0.541819	0.194503	-0.257504	0.568522	0.138612	-0.127964	1.129051	0.358381	-0.110361	1.091681	0.334449	-0.132395	0.876757	-0.055644	-0.281521	0.912165	0.006351	-0.107776	0.89466	0.158395	-0.253089	0.916552	0.150855	-0.283015	1.347587	0.032502	-0.223429	1.285352	0.023942	-0.256844	1.29108	-0.07603	-0.227024	1.304926	0.134546	-0.24811	1.57903	0.010964	-0.197828	1.173564	0.334421	-0.257085	1.093256	-0.175313	-0.142737	0.602058	0.220102	-0.239663	0.52266	-0.079327	-0.220676	0.300795	0.242639	-0.258758	0.24689	-0.075069	-0.061564	1.138855	0.38802	-0.204026	0.928011	-0.144728
4684	4.684	-0.316155	0.031147	-0.035346	-0.261033	0.074133	-0.068423	-0.248452	0.055485	-0.023276	-0.192958	-0.013166	-0.161133	-0.11588	0.024472	-0.122629	-0.153792	0.75281	-0.129759	-0.166852	0.762707	-0.14849	-0.23618	1.242019	-0.088403	-0.331678	1.245229	-0.062106	-0.246544	0.444217	-0.024487	-0.280388	0.440634	0.047429	-0.212652	0.976189	-0.151828	-0.247297	0.955721	-0.119193	-0.272815	0.049229	0.19844	-0.213083	0.077489	0.196464	-0.226206	0.086243	0.157753	-0.089611	0.018691	0.225635	-0.050125	0.029654	0.176242	0.087203	1.177038	0.376651	0.073386	1.169269	0.43125	-0.233936	1.315374	0.155085	-0.307531	1.264255	0.142302	-0.198078	0.541816	0.194494	-0.257518	0.568516	0.138604	-0.12823	1.12843	0.35809	-0.11063	1.091129	0.334048	-0.13242	0.876815	-0.055698	-0.281543	0.912185	0.006327	-0.107769	0.894697	0.158339	-0.253088	0.91656	0.150827	-0.282908	1.347644	0.032611	-0.223351	1.285385	0.024026	-0.256745	1.291185	-0.075948	-0.226956	1.304898	0.134641	-0.248027	1.579056	0.01103	-0.198087	1.173023	0.334258	-0.257056	1.09331	-0.175301	-0.142749	0.602056	0.220089	-0.239665	0.522661	-0.079339	-0.220683	0.300797	0.242632	-0.258761	0.246888	-0.075073	-0.06191	1.137883	0.387885	-0.203997	0.928053	-0.144708
4685	4.685	-0.316161	0.03116	-0.035352	-0.261033	0.074141	-0.068427	-0.248457	0.055494	-0.023279	-0.192958	-0.013167	-0.161129	-0.11588	0.024469	-0.122622	-0.153805	0.752835	-0.129792	-0.16686	0.762742	-0.148521	-0.236088	1.242127	-0.088358	-0.331592	1.245374	-0.062087	-0.246547	0.444223	-0.024492	-0.280392	0.440647	0.047423	-0.212629	0.976249	-0.151775	-0.247287	0.955786	-0.119151	-0.272815	0.049243	0.198431	-0.213081	0.077499	0.196463	-0.226202	0.086263	0.157754	-0.089614	0.018684	0.225623	-0.050126	0.029655	0.176234	0.08692	1.175872	0.376688	0.073058	1.168009	0.431262	-0.233875	1.315343	0.155172	-0.307493	1.264271	0.142338	-0.198091	0.541813	0.194484	-0.257533	0.568509	0.138595	-0.1285	1.127806	0.357802	-0.110902	1.090577	0.333647	-0.132445	0.876873	-0.05575	-0.281565	0.912205	0.006303	-0.107762	0.894735	0.158285	-0.253087	0.916568	0.150799	-0.282794	1.347709	0.032702	-0.223268	1.285423	0.024099	-0.25663	1.291298	-0.075882	-0.226895	1.304876	0.134724	-0.247942	1.579083	0.011095	-0.198345	1.172484	0.334095	-0.257026	1.093364	-0.175289	-0.142762	0.602055	0.220075	-0.239667	0.522662	-0.079351	-0.220689	0.300799	0.242625	-0.258764	0.246886	-0.075077	-0.062258	1.136915	0.387746	-0.203969	0.928094	-0.144687
4686	4.686	-0.316165	0.03117	-0.035357	-0.261034	0.074148	-0.068431	-0.248461	0.055502	-0.023281	-0.192958	-0.013167	-0.161126	-0.11588	0.024466	-0.122616	-0.153818	0.752862	-0.129822	-0.166868	0.762777	-0.14855	-0.235984	1.242237	-0.088326	-0.331496	1.245522	-0.062089	-0.24655	0.444228	-0.024498	-0.280397	0.440657	0.047416	-0.212604	0.976307	-0.151729	-0.247277	0.955847	-0.119117	-0.272815	0.049254	0.198424	-0.213079	0.077507	0.196463	-0.226199	0.086279	0.157755	-0.089617	0.018678	0.225614	-0.050127	0.029656	0.176228	0.086637	1.174698	0.376733	0.072724	1.16674	0.43128	-0.233823	1.315316	0.155246	-0.307464	1.264291	0.142356	-0.198103	0.541809	0.194474	-0.257546	0.568503	0.138585	-0.128784	1.127171	0.357523	-0.11119	1.090013	0.333258	-0.132466	0.876929	-0.055797	-0.281585	0.912223	0.00628	-0.107758	0.894773	0.158237	-0.253088	0.916577	0.150772	-0.282677	1.347777	0.032775	-0.223183	1.285463	0.02416	-0.256504	1.291412	-0.07583	-0.22684	1.304855	0.134794	-0.247858	1.579108	0.01116	-0.198605	1.171949	0.333932	-0.256995	1.093418	-0.175277	-0.142774	0.602053	0.220061	-0.239669	0.522663	-0.079364	-0.220697	0.3008	0.242619	-0.258767	0.246884	-0.075081	-0.062609	1.135951	0.387603	-0.203943	0.928136	-0.144668
